<svg width="14" height="14" viewBox="0 0 14 14" fill="none" xmlns="http://www.w3.org/2000/svg">
<path d="M4.5 7L6.5 9L12 2" stroke="#003D11" stroke-width="2"/>
<path d="M7 0C8.27489 0 9.46948 0.342008 10.499 0.9375L9.12012 2.4707C8.47642 2.16888 7.75796 2 7 2C4.23858 2 2 4.23858 2 7C2 9.76142 4.23858 12 7 12C9.76142 12 12 9.76142 12 7C12 6.47885 11.9204 5.97628 11.7725 5.50391L13.2539 3.85645C13.7301 4.80189 14 5.86918 14 7C14 10.866 10.866 14 7 14C3.13401 14 0 10.866 0 7C0 3.13401 3.13401 0 7 0Z" fill="#003D11"/>
</svg>
